<svg width="100" height="101" viewBox="0 0 100 101" fill="none" xmlns="http://www.w3.org/2000/svg">
<path d="M84.3779 28.3411H15.6279C13.902 28.3411 12.5029 29.7402 12.5029 31.4661V81.4661C12.5029 83.192 13.902 84.5911 15.6279 84.5911H84.3779C86.1038 84.5911 87.5029 83.192 87.5029 81.4661V31.4661C87.5029 29.7402 86.1038 28.3411 84.3779 28.3411Z" stroke="#9D634E" stroke-width="7" stroke-linecap="round" stroke-linejoin="round"/>
<path d="M65.625 28.3411V22.0911C65.625 20.4335 64.9665 18.8437 63.7944 17.6716C62.6223 16.4995 61.0326 15.8411 59.375 15.8411H40.625C38.9674 15.8411 37.3777 16.4995 36.2056 17.6716C35.0335 18.8437 34.375 20.4335 34.375 22.0911V28.3411" stroke="#9D634E" stroke-width="7" stroke-linecap="round" stroke-linejoin="round"/>
<path d="M87.503 49.5557C76.1057 56.1496 63.1672 59.6119 49.9999 59.5912C36.8348 59.6118 23.8984 56.1508 12.5024 49.559" stroke="#9D634E" stroke-width="7" stroke-linecap="round" stroke-linejoin="round"/>
<path d="M45.3125 47.0911H54.6875" stroke="#9D634E" stroke-width="7" stroke-linecap="round" stroke-linejoin="round"/>
</svg>
