<svg width="100" height="101" viewBox="0 0 100 101" fill="none" xmlns="http://www.w3.org/2000/svg">
<path d="M84.375 32.0671H15.625C13.8991 32.0671 12.5 33.4674 12.5 35.1948V47.7055C12.5 49.4329 13.8991 50.8332 15.625 50.8332H84.375C86.1009 50.8332 87.5 49.4329 87.5 47.7055V35.1948C87.5 33.4674 86.1009 32.0671 84.375 32.0671Z" stroke="#9D634E" stroke-width="7" stroke-linecap="round" stroke-linejoin="round"/>
<path d="M81.25 50.8333V78.9824C81.25 79.8119 80.9208 80.6074 80.3347 81.194C79.7487 81.7805 78.9538 82.1101 78.125 82.1101H21.875C21.0462 82.1101 20.2513 81.7805 19.6653 81.194C19.0792 80.6074 18.75 79.8119 18.75 78.9824V50.8333" stroke="#9D634E" stroke-width="7" stroke-linecap="round" stroke-linejoin="round"/>
<path d="M50 32.0671V82.11" stroke="#9D634E" stroke-width="7" stroke-linecap="round" stroke-linejoin="round"/>
<path d="M67.6777 27.644C63.2583 32.0672 50 32.0672 50 32.0672C50 32.0672 50 18.7975 54.4194 14.3743C56.1779 12.6163 58.562 11.6292 61.0474 11.6299C63.5329 11.6306 65.9164 12.6191 67.6739 14.3781C69.4314 16.1371 70.4191 18.5226 70.4198 21.0103C70.4205 23.4979 69.4342 25.884 67.6777 27.644V27.644Z" stroke="#9D634E" stroke-width="7" stroke-linecap="round" stroke-linejoin="round"/>
<path d="M32.3222 27.644C36.7416 32.0672 49.9998 32.0672 49.9998 32.0672C49.9998 32.0672 49.9998 18.7975 45.5804 14.3743C43.8219 12.6163 41.4379 11.6292 38.9524 11.6299C36.4669 11.6306 34.0835 12.6191 32.326 14.3781C30.5685 16.1371 29.5808 18.5226 29.5801 21.0103C29.5794 23.4979 30.5657 25.884 32.3222 27.644V27.644Z" stroke="#9D634E" stroke-width="7" stroke-linecap="round" stroke-linejoin="round"/>
</svg>
