<svg width="21" height="20" viewBox="0 0 21 20" fill="none" xmlns="http://www.w3.org/2000/svg">
<path fill-rule="evenodd" clip-rule="evenodd" d="M15.0657 5.40988C14.0036 4.43367 12.5862 3.90185 11.1194 3.92371C8.43582 3.92371 6.15642 5.66849 5.34375 8.01793V8.01797C4.91299 9.24915 4.91299 10.5823 5.34375 11.8135H5.3476C6.16412 14.1593 8.43969 15.9041 11.1233 15.9041C12.5086 15.9041 13.698 15.5626 14.6195 14.9595V14.9571C15.7044 14.265 16.4455 13.1759 16.6756 11.9447H11.1194V8.12726H20.8225C20.9434 8.79021 21 9.46774 21 10.1416C21 13.1567 19.8817 15.7059 17.9362 17.4325L17.9384 17.434C16.2337 18.9493 13.8939 19.8271 11.1194 19.8271C7.23011 19.8271 3.67299 17.7145 1.92679 14.3669C0.467763 11.5658 0.467763 8.26567 1.92679 5.46452C3.67299 2.11336 7.23011 0.000668041 11.1194 0.000668041C13.6744 -0.0284724 16.1429 0.896738 18.0027 2.5796L15.0657 5.40988Z" fill="#D67454"/>
</svg>
