<svg width="22" height="20" viewBox="0 0 22 20" fill="none" xmlns="http://www.w3.org/2000/svg">
<path d="M11.1741 1.78521C13.9229 1.78521 14.2482 1.79683 15.3292 1.8433C16.3339 1.8859 16.8761 2.04855 17.2378 2.18408C17.7162 2.36222 18.0617 2.57908 18.4191 2.92372C18.7809 3.27225 19.002 3.60141 19.1868 4.06224C19.3274 4.41075 19.4962 4.93741 19.5404 5.90167C19.5884 6.94722 19.6004 7.2609 19.6004 9.90584C19.6004 12.5546 19.5884 12.8683 19.5404 13.91C19.4962 14.8781 19.3274 15.4009 19.1868 15.7494C19.002 16.2102 18.7766 16.5433 18.4191 16.8879C18.0574 17.2364 17.7162 17.4494 17.2378 17.6276C16.8761 17.7631 16.3296 17.9257 15.3292 17.9683C14.2443 18.0148 13.9186 18.0264 11.1741 18.0264C8.4258 18.0264 8.10005 18.0148 7.01907 17.9683C6.01481 17.9257 5.47217 17.7631 5.11041 17.6276C4.6325 17.4494 4.2866 17.2326 3.92913 16.8879C3.56737 16.5394 3.34664 16.2102 3.16147 15.7494C3.02089 15.4009 2.852 14.8742 2.80786 13.91C2.75985 12.8644 2.74785 12.5507 2.74785 9.90584C2.74785 7.25706 2.75985 6.94338 2.80786 5.90167C2.852 4.93353 3.02089 4.41075 3.16147 4.06224C3.34664 3.60141 3.57166 3.26838 3.92913 2.92372C4.29088 2.5752 4.6325 2.36222 5.11041 2.18408C5.47217 2.04855 6.01866 1.8859 7.01907 1.8433C8.10005 1.79683 8.4258 1.78521 11.1741 1.78521ZM11.1741 0C8.38123 0 8.0319 0.0116175 6.93463 0.0580873C5.84165 0.104557 5.09027 0.274946 4.43962 0.518913C3.76026 0.774497 3.18591 1.1114 2.61498 1.66517C2.04063 2.21506 1.69088 2.76883 1.42556 3.41941C1.17267 4.05062 0.995645 4.7709 0.947639 5.82422C0.899205 6.88526 0.887207 7.2222 0.887207 9.91356C0.887207 12.6049 0.899205 12.9418 0.947639 13.999C0.995645 15.0523 1.17267 15.7765 1.42556 16.4038C1.69088 17.0583 2.04063 17.6121 2.61498 18.162C3.18591 18.7118 3.76026 19.0526 4.43534 19.3043C5.09028 19.5483 5.83779 19.7187 6.93077 19.7652C8.02762 19.8116 8.37737 19.8232 11.1703 19.8232C13.9627 19.8232 14.3125 19.8116 15.4093 19.7652C16.5023 19.7187 17.2537 19.5483 17.9048 19.3043C18.5799 19.0526 19.1546 18.7118 19.7251 18.162C20.2956 17.6121 20.6492 17.0583 20.9107 16.4077C21.1636 15.7765 21.3406 15.0562 21.3886 14.0029C21.437 12.9457 21.449 12.6088 21.449 9.91745C21.449 7.22608 21.437 6.88914 21.3886 5.83198C21.3406 4.77867 21.1636 4.05449 20.9107 3.42715C20.6574 2.76882 20.3076 2.21506 19.7333 1.66517C19.1628 1.11528 18.588 0.774497 17.9129 0.522783C17.258 0.278819 16.5105 0.10843 15.4175 0.0619598C14.3163 0.0116175 13.967 0 11.1741 0Z" fill="#D67454"/>
<path d="M11.1747 4.82031C8.25747 4.82031 5.89062 7.10132 5.89062 9.91284C5.89062 12.7244 8.25747 15.0054 11.1747 15.0054C14.0918 15.0054 16.4587 12.7244 16.4587 9.91284C16.4587 7.10132 14.0918 4.82031 11.1747 4.82031ZM11.1747 13.2162C9.28187 13.2162 7.74698 11.7369 7.74698 9.91284C7.74698 8.08883 9.28187 6.60946 11.1747 6.60946C13.0674 6.60946 14.6023 8.08883 14.6023 9.91284C14.6023 11.7369 13.0674 13.2162 11.1747 13.2162Z" fill="#D67454"/>
<path d="M17.9008 4.6194C17.9008 5.27762 17.3461 5.80811 16.6672 5.80811C15.984 5.80811 15.4336 5.27378 15.4336 4.6194C15.4336 3.96114 15.9878 3.43066 16.6672 3.43066C17.3461 3.43066 17.9008 3.96501 17.9008 4.6194Z" fill="#D67454"/>
</svg>
