<svg width="22" height="17" viewBox="0 0 22 17" fill="none" xmlns="http://www.w3.org/2000/svg">
<path d="M7.41702 16.728C15.1789 16.728 19.4257 10.5293 19.4257 5.15535C19.4257 4.98107 19.4214 4.80296 19.4133 4.62868C20.2397 4.05294 20.9525 3.33982 21.5187 2.52279C20.7493 2.85266 19.9324 3.0681 19.0961 3.16174C19.9769 2.65299 20.6361 1.85375 20.952 0.912194C20.1235 1.3854 19.2174 1.71921 18.2727 1.89931C17.6362 1.24744 16.7944 0.815824 15.8776 0.671196C14.9612 0.526567 14.0204 0.676979 13.2013 1.09917C12.3826 1.52137 11.7307 2.19184 11.3466 3.00692C10.9626 3.82199 10.8679 4.73629 11.077 5.60844C9.39939 5.52728 7.7582 5.10731 6.25973 4.37567C4.76127 3.644 3.43897 2.61708 2.37899 1.36141C1.84021 2.25672 1.6752 3.31619 1.9178 4.32441C2.1604 5.33268 2.79219 6.21413 3.68501 6.78954C3.01464 6.76905 2.35928 6.59515 1.77249 6.28225V6.3326C1.77206 7.27217 2.10896 8.18291 2.7266 8.91008C3.34382 9.63725 4.20364 10.1359 5.15904 10.3213C4.53839 10.485 3.88688 10.5089 3.2551 10.391C3.5247 11.199 4.04933 11.9058 4.75613 12.4125C5.4625 12.9193 6.31546 13.2009 7.19628 13.218C5.70124 14.3497 3.85431 14.9635 1.95337 14.9606C1.61647 14.9601 1.27958 14.9402 0.944824 14.901C2.87619 16.095 5.1226 16.7292 7.41702 16.728Z" fill="#D67454"/>
</svg>
